<?xml version="1.0" encoding="UTF-8"?><svg xmlns="http://www.w3.org/2000/svg" width="1080" height="1080" viewBox="0 0 1080 1080"><defs><style>.p{fill:#fff;}.q{fill:#5a9fd4;}.r{fill:#ffd43b;}.s{fill:#e43a25;}.t{fill:#030404;}.u{fill:#3e6d90;}.v{fill:#1a1a1a;}</style></defs><g id="a"><rect class="v" width="1080" height="1080"/></g><g id="b"><g id="c"><path class="q" d="M470.1992,170.2002c183.1195-3.4423,368.7289,87.0951,451.4542,255.463,3.7264,7.8904,7.9798,16.9627,11.1247,25.0938,1.6794,4.2844,4.2134,10.3611,5.6123,14.6827,1.2089,3.5004,3.2923,9.5944,4.4559,13.0307,1.1567,3.5621,2.2379,7.5561,3.133,10.8667,25.3786,99.7964,19.2125,209.6855-28.7118,302.0917-89.8475,175.1771-325.4628,261.5867-504.3941,174.0052-.9378-.372-2.7308-1.348-3.6325-1.8014-7.0873-3.7565-15.7297-8.1826-22.2811-12.4553-33.2534-21.2097-62.7693-47.296-88.0664-77.4392-44.995-53.1256-73.9121-121.2598-77.0905-191.2472-5.1268-110.7094,43.8245-216.6098,140.3756-273.929,79.9273-47.6785,183.3157-64.3372,271.5453-30.0944,32.1734,12.7682,61.6289,34.1589,81.6286,62.7829,34.4009,48.2308,46.1475,117.4057,13.0142,169.3145-29.3734,46.4966-83.6013,71.3252-135.6074,81.3171-45.1958,8.336-106.5594,8.624-143.494-23.6-26.7708-23.817-33.0872-66.5725-13.572-96.8889,32.4652-48.0054,114.4256-42.4554,163.6766-31.1086,48.0253,11.5482,96.9553,33.2474,128.2142,73.0777,25.2857,32.4702,30.1323,72.0076,17.3407,110.5293-8.1652,24.6661-22.7548,47.6281-42.5283,64.4565-49.5004,42.6007-131.2154,52.726-192.3812,35.0978-44.4411-13.0305-83.2341-43.1871-108.768-81.3301-4.9598-7.4428-9.4885-15.1876-13.159-23.3322,0,0,.8236-.5673.8236-.5673,61.3908,61.6235,138.0487,93.3511,223.9438,68.8118,34.0447-9.5819,66.0403-29.5225,79.8015-62.4243,6.9608-15.9159,10.5977-34.4516,6.6374-51.346-7.6444-30.8439-38.5743-49.8405-67.5377-61.6926-35.3726-13.7305-75.2487-20.3625-112.8366-15.4416-6.9515,1.0199-13.485,2.619-18.7512,4.6392-3.7501,1.4975-7.7565,3.3577-9.5432,5.8202.078.0449.0322-.0111.0883.0167.079-.0094.0654.052.0367.2646-.3209,1.5235-.2305,4.4593.4112,6.2976.8105,2.1492,1.0628,3.0448,2.7965,4.2313.8112.6038,2.2382,1.5067,4.172,2.3986,3.876,1.8301,9.5817,3.4748,15.8238,4.5084,20.8172,3.2351,42.8435,1.1259,63.8734-3.7723,32.9335-7.7916,79.8646-28.5445,87.2925-64.1346,4.8007-26.327-10.3932-58.1219-31.6862-74.8435-26.0881-19.834-59.7944-24.2033-92.1538-22.447-58.7691,4.171-118.5053,30.5979-156.6319,75.9366-23.4586,28.1706-36.574,63.2723-40.7303,99.6784-2.9288,25.0438-1.808,50.5872,4.5861,74.9208,10.3896,41.2564,35.9388,77.7984,67.3632,106.2914,15.0343,13.4211,31.4966,26.1029,49.5866,34.7971,98.2459,47.0762,224.0064,12.5372,297.2051-65.1348,2.0739-2.0613,5.018-5.434,6.9475-7.6836,1.9995-2.1707,4.7326-5.5634,6.5553-7.9457,3.2348-3.7416,6.3054-8.2929,9.1848-12.3315.5032-.7049,1.7394-2.4365,2.2336-3.1225l.6793-1.0822,5.4612-8.6378c39.1637-65.6316,43.8287-148.2221,25.6387-221.8856-.7198-3.4049-3.296-10.2818-4.3398-13.524-.4323-1.4425-1.2201-3.5227-1.7862-4.9168-1.1377-2.8073-2.6909-6.9741-3.844-9.7495-1.0835-2.3654-3.2295-7.2126-4.2896-9.5931-12.8829-27.3433-30.3804-52.3757-51.0358-74.5277-64.6754-68.9074-158.1879-106.9822-251.7216-114.374-4.1942-.2988-10.1276-.5664-14.3115-.8859-4.9774-.3007-12.4258-.3213-17.2303-.5325,0,.0002-.6015-124.5994-.6015-124.5994h0Z"/></g><g id="d"><path class="u" d="M525.876,392.3208c-.9685,1.695-.519,3.8555,1.0621,5.0006,8.2352,5.9642,28.4158,17.9125,32.9768,24.1895,7.0574,9.7125,12.3291,18.47,15.8714,26.2755,1.4799,3.261,6.2541,2.9056,7.1904-.5509,3.1887-11.7716.141-21.9116-2.3587-27.5324-1.0217-2.2975.3764-4.9269,2.8549-5.3503,5.3774-.9186,13.8798-3.0937,21.1227-8.1682,3.0606-2.1443,1.6373-6.9122-2.0985-7.0074-6.5564-.167-15.1837-1.5665-23.9292-6.4747-8.0407-4.5127-26.9731-16.3022-34.8568-22.6269-1.8419-1.4776-4.5616-.9856-5.7331,1.0646-4.034,7.0602-8.068,14.1203-12.102,21.1805Z"/><path class="u" d="M738.4279,629.9719c-3.0709-5.7035-6.6735-11.2543-10.8439-16.6096-.1912-.2435-.391-.4781-.5835-.7203-2.3684,3.6052-4.8704,7.0928-7.5281,10.4346-2.1123,2.6558-4.3118,5.2296-6.5917,7.7228-2.2799,2.4932-4.6405,4.9061-7.075,7.2401-5.1838,4.9698-10.7115,9.5715-16.5021,13.8429,3.3539,4.7073,6.1138,9.7892,8.1168,15.2762,15.3763-10.3981,29.3158-22.7248,41.0073-37.1866Z"/><path class="u" d="M470.1992,170.2002s.6016,124.5995.6015,124.5994c4.8045.2112,12.253.2318,17.2303.5325,4.1839.3195,10.1173.5871,14.3115.8859,24.4694,1.9338,48.9315,5.9893,72.8813,12.1271,6.7089-35.8959,10.1854-78.5311,8.2295-128.3035-37.2323-7.2228-75.2954-10.555-113.2542-9.8414Z"/><path class="u" d="M362.1785,408.5621c-21.2189,12.5969-40.1271,27.5494-56.6787,44.3748,97.5591,30.605,161.802,21.6932,194.9742,3.0338,17.7859-10.0046,43.007-40.6061,61.0737-94.3199-68.8964-6.4874-140.4964,11.7922-199.3693,46.9113Z"/></g><g id="e"><path class="r" d="M728.646,233.3535c-2.2085,2.5682-.7001,4.7817-1.2302,14.2649-.6437,11.5109-3.1644,13.5895-1.0813,16.5969,2.3533,3.3973,6.8386,1.7161,18.8418,4.8345,6.9363,1.802,12.879,3.358,12.879,3.358,3.2098.8357,6.6195.0124,8.9913-2.1785,2.3828-2.1853,3.3877-5.4111,2.6752-8.5404,0,0-.7104-3.1938-1.6968-7.5859-12.0963-7.9258-24.5636-15.3071-37.3475-22.1412-.7725.2506-1.406.6644-2.0315,1.3918Z"/><path class="r" d="M880.8426,516.2337c-.1501,4.1301,4.4488,5.47,12.1937,15.1558,4.4757,5.5973,8.3028,10.4024,8.3028,10.4024,2.07,2.5916,5.2937,3.9743,8.5052,3.6403,3.217-.323,5.9537-2.3045,7.2571-5.2373,0,0,9.9089-21.9964,12.8071-28.8768.2153-.5109.367-1.3594.1909-2.3862-.6946-4.0494-6.4305-5.0585-14.5202-8.9891-9.8552-4.7884-10.7346-7.8543-14.4028-7.0398-3.3066.7341-3.4243,3.4101-9.5283,10.687-7.4092,8.8328-10.6728,8.9878-10.8057,12.6436Z"/><path class="r" d="M838.9262,795.3444c-3.1075,2.7246-.9268,6.9895-2.6591,19.2695-1.0011,7.0964-1.8708,13.1775-1.8708,13.1775-.465,3.284.7409,6.5779,3.1874,8.6851,2.4423,2.1187,5.7615,2.75,8.7894,1.686,0,0,22.8008-7.8838,29.7946-10.4962.5194-.194,1.2407-.6657,1.8669-1.4983,2.4693-3.2837-.7322-8.1489-3.4233-16.7308-3.2785-10.455-1.6515-13.1982-4.7608-15.308-2.8028-1.9018-4.8303-.1514-14.3122.4009-11.5094.6704-13.8614-1.5975-16.6121.8142Z"/><path class="r" d="M619.9149,926.6034c-4.0945-.5614-5.8865,3.8808-16.2968,10.6207-6.0159,3.8949-11.1789,7.2235-11.1789,7.2235-2.7851,1.8011-4.4826,4.8708-4.4707,8.0996.0004,3.2332,1.699,6.1539,4.4871,7.7435,0,0,20.898,12.0542,27.4549,15.6244.4869.2652,1.316.5008,2.3552.4281,4.0985-.2871,5.6749-5.8937,10.3929-13.5508,5.7478-9.3283,8.8861-9.8974,8.4417-13.6285-.4006-3.3634-3.0514-3.7475-9.683-10.5471-8.0495-8.2535-7.8781-11.5163-11.5024-12.0133Z"/><path class="r" d="M371.4353,824.7067c-.6472-4.0818-5.4179-4.512-14.8814-12.5271-5.4688-4.6318-10.1488-8.611-10.1488-8.611-2.5298-2.145-5.9594-2.8817-9.0466-1.9362-3.0948.9358-5.3992,3.4068-6.1141,6.5355,0,0-5.4925,23.4917-7.0131,30.8011-.113.5428-.0987,1.4046.2716,2.3783,1.4606,3.8402,7.2835,3.727,15.9781,6.028,10.5923,2.8032,12.045,5.6426,15.488,4.1378,3.1036-1.3565,2.7044-4.0051,7.2946-12.3203,5.5717-10.0931,8.7446-10.873,8.1717-14.4861Z"/><path class="r" d="M350.3782,601.5195c3.9575-14.1255,9.4405-27.7554,16.5353-40.5255-6.6313,3.2585-19.3187,9.5123-24.116,12.0096-.4918.2559-1.1501.8123-1.6699,1.7151-2.0497,3.5607,1.7222,7.9984,5.4416,16.1873,2.3421,5.1566,3.131,8.4191,3.809,10.6135Z"/></g></g><g id="f"><path id="g" class="s" d="M512.4227,375.6755c-.7583,1.3271-.4063,3.0186.8316,3.9151,6.4476,4.6695,43.2476,25.0243,46.8186,29.9387,5.5254,7.6042,9.6528,14.4607,12.4262,20.5719,1.1587,2.5531,4.8965,2.2749,5.6296-.4313,2.4965-9.2163.1104-17.1552-1.8467-21.5559-.8-1.7988.2947-3.8574,2.2352-4.1889,4.2102-.7192,10.8669-2.4222,16.5376-6.3951,2.3963-1.6788,1.2819-5.4118-1.643-5.4863-5.1332-.1308-11.8878-1.2265-18.7349-5.0693-6.2953-3.5331-42.118-23.7635-48.2905-28.7153-1.442-1.1569-3.5714-.7717-4.4886.8335-3.1583,5.5276-6.3167,11.0552-9.475,16.5828Z"/><path id="h" class="r" d="M174.8148,380.6682c-1.7461-.969-2.23-9.0428-1.8148-11.6682l-19.2007-20.2723c-2.2474-2.4437-3.1462-5.8382-2.3607-9.0066.7773-3.1541,3.1162-5.6144,6.1848-6.5125l30.2446-8.7554c.8505-2.5101,1.728-5.0103,2.6414-7.4913l-17.299-27.8219c-1.7596-2.8116-1.9907-6.3135-.6127-9.2303,1.3617-2.9211,4.1493-4.8561,7.3481-5.1066l31.488-2.4943c1.3342-2.299,2.6878-4.5774,4.0794-6.8364l-11.7422-30.4749c-1.1922-3.0856-.7487-6.5456,1.1591-9.109,1.9106-2.5788,5.0314-3.9034,8.2439-3.5073l31.5599,3.8371c1.7628-1.9685,3.5417-3.9223,5.3619-5.8509l-5.7736-31.9894c-.5961-3.2551.4941-6.5194,2.8837-8.6482,2.3783-2.1079,5.7137-2.7819,8.8006-1.7677l30.5124,10.0602c2.0901-1.5488,4.2087-3.0838,6.3481-4.5756l.4176-32.3894c.0303-3.2741,1.7402-6.2417,4.4957-7.8299,2.7618-1.5919,6.1816-1.5809,9.0421.027l28.2308,15.877c2.3632-1.1034,4.7426-2.1609,7.1345-3.1955l6.5879-31.4442c.6682-3.1786,2.913-5.7209,5.9384-6.7276,3.0372-1.0073,6.4083-.3063,8.9313,1.8382l24.7781,21.0355c2.5879-.6121,5.1655-1.1776,7.751-1.7071l12.507-29.2366c1.2639-2.9693,3.9745-5.0065,7.1544-5.3679,3.1858-.3724,6.3947.9824,8.4697,3.5592l20.481,25.4379c2.6534-.0724,5.3066-.0945,7.9556-.1004l17.9446-25.9978c1.8252-2.6397,4.8821-4.0789,8.1031-3.7992,3.2176.2679,6.1288,2.225,7.6818,5.1558l15.3964,28.9185c2.6099.4502,5.2178.9415,7.8073,1.4689l22.7416-21.7849c2.3048-2.2066,5.6135-2.994,8.7276-2.0828,3.1282.9127,5.6202,3.3888,6.6051,6.5602l7.2505,24.3384c2.4881.9423,9.6885,7.862,9.8569,9.8546,15.1431,179.1454-42.8569,269.1454-74.8569,287.1454-43.9951,24.7473-147,31-315.1852-62.3318Z"/><path id="i" class="t" d="M416.6517,268.8313s9.1773-41.5786,49.7558-28.6784c0,0,40.4838,25.0557,31.4023,54.4816,0,0-17.3313,43.8615-49.7558,28.6784,0,0-32.8394-7.6867-31.4023-54.4816Z"/><path id="j" class="p" d="M451.2784,262.3353c6.1138,10.6072,4.8179,22.8102-2.8933,27.2548-7.7096,4.4437-18.9185-.5518-25.0323-11.159s-4.8182-22.8108,2.8914-27.2545,18.9206.5519,25.0342,11.1586Z"/><path id="k" class="t" d="M301.3287,325.3925s31.7841-43.492,67.7395-8.0315c0,0,40.5337,42.1237-5.1123,72.1296,0,0-66.9345,23.1212-62.6273-64.0981Z"/><path id="l" class="p" d="M333.2752,331.278c6.3044,10.9379,4.9707,23.5254-2.9834,28.1099s-19.5129-.5718-25.8173-11.5097c-6.3059-10.9405-4.9691-23.5262,2.9818-28.109s19.513.5683,25.8189,11.5088Z"/><g id="m"><path id="n" class="t" d="M457.6063,435.6128s-1.3552,8.2645-9.4633,6.1675c0,0-8.2203-4.4854-6.7533-10.3622,0,0,2.932-8.8006,9.4633-6.1675,0,0,6.5322,1.1564,6.7533,10.3622Z"/><path id="o" class="t" d="M498.6468,412.2641s-5.7744,8.8835-13.2173,2.3059c0,0-8.4137-7.8369.2282-14.2209,0,0,12.8969-5.2608,12.9891,11.9149Z"/></g></g></svg>