<?xml version="1.0" encoding="UTF-8"?><svg xmlns="http://www.w3.org/2000/svg" width="1080" height="1080" viewBox="0 0 1080 1080"><defs><style>.p{fill:#fff;}.q{fill:#5a9fd4;}.r{fill:#ffd43b;}.s{fill:#e43a25;}.t{fill:#030404;}.u{fill:#3e6d90;}.v{fill:#1a1a1a;}</style></defs><g id="a"><rect class="v" width="1080" height="1080"/></g><g id="b"><g id="c"><path class="q" d="M470.1992,170.2002c140.2648-2.5648,282.2545,49.1764,379.6617,152.05,42.1707,44.6778,74.899,98.5985,93.3894,157.4029,28.0162,99.5323,23.6492,210.0918-22.2551,304.1025-17.3741,35.6271-41.0854,68.57-69.0085,96.6582-116.4061,117.8402-311.8488,158.9436-458.4507,74.024-34.9209-21.118-65.6353-48.0825-92.1285-78.9857-44.2956-52.0525-72.9359-115.6509-77.5245-184.3734-6.8541-93.9946,25.6439-189.9315,100.9035-249.6672,84.0959-66.1615,205.9983-86.8043,304.297-41.1946,45.6125,21.289,81.4601,57.3094,104.7376,101.7447,37.2798,69.8445,41.9726,157.0079-4.552,223.7989-27.6397,39.8894-69.6303,69.0195-116.2176,82.0876-34.9037,9.9045-73.4819,10.2288-108.1644-1.5152-11.703-3.8106-22.6418-9.2572-33.1248-15.3554-33.4788-19.4956-62.4994-49.2218-75.2479-86.5194-22.2928-64.4901,6.0814-145.2041,68.5029-175.6444,29.5916-13.9453,66.5414-16.7278,97.6527-6.4616,23.6064,7.765,43.629,24.9383,52.7659,48.2988,13.8873,33.4484,3.3714,74.5204-21.5234,99.1309.0004,0-.8257-.5635-.8257-.5635,6.2627-14.762,10.1991-30.3483,10.2071-46.0897-.2131-22.5477-7.8197-43.1595-24.8902-56.7847-21.2296-16.1751-51.2193-16.8267-76.5045-9.5361-33.1876,9.2462-55.0902,39.0586-61.7813,71.9208-8.7734,41.4375,6.7431,78.1186,41.5081,102.2906,12.9228,9.0329,27.5612,16.8422,42.8364,20.8661,56.1118,14.0549,118.4104-15.1339,148.8361-63.3017,13.754-21.7683,19.6984-47.7195,18.0554-73.3693-2.7718-43.7222-25.5962-89.1167-59.3832-116.9753-74.1693-59.8609-198.0471-31.1359-254.8214,39.6856-30.8904,39.395-40.4606,91.2021-35.4807,140.6621,4.0847,41.9461,22.0432,80.9697,49.4688,113.0022,13.8904,16.3896,30.0619,31.1339,47.4808,43.6973,6.177,4.356,12.4878,8.7047,19.0009,12.1489,113.5095,60.2664,268.6177,6.8057,334.5213-99.9259,41.5134-66.9728,45.9873-153.5518,25.938-229.0895-13.5634-42.8773-38.3435-82.1332-70.3238-114.2228-72.4277-72.547-174.6106-108.128-276.9539-109.3969,0,0-.6016-124.5995-.6016-124.5995h0Z"/></g><g id="d"><path class="u" d="M526.9381,397.3214c8.2352,5.9642,28.4158,17.9125,32.9769,24.1895,7.0574,9.7125,12.329,18.47,15.8714,26.2755,1.4799,3.261,6.2541,2.9056,7.1904-.5509,3.1887-11.7715.1411-21.9116-2.3587-27.5323-1.0217-2.2975.3764-4.9269,2.8549-5.3503,5.3774-.9186,13.8798-3.0937,21.1227-8.1682,3.0605-2.1443,1.6372-6.9122-2.0986-7.0074-6.5564-.167-15.1837-1.5665-23.9292-6.4747-5.0786-2.8502-14.5004-8.6029-22.7406-14.0484-6.9265-.9987-13.8912-1.7329-20.8774-2.2142-3.0247,5.2936-6.0493,10.5873-9.0739,15.8809-.9685,1.6951-.519,3.8555,1.0621,5.0006Z"/><path class="u" d="M470.2316,176.8992c.0045.9412.0095,1.9697.0148,3.0781.0054,1.1084.0111,2.2968.0172,3.5573.0092,1.8908.019,3.9441.0296,6.1343.0071,1.4601.0143,2.9811.022,4.5554.0152,3.1484.0314,6.5098.0484,10.0233.0043.8826.0086,1.7748.0129,2.6757.0087,1.7888.0175,3.6114.0264,5.4606.0179,3.7074.0363,7.5213.0549,11.3808.0093,1.9297.0187,3.871.0281,5.8159s.0188,3.8937.0282,5.8387c.0093,1.9403.0187,3.8768.028,5.8019.0047.9742.0094,1.9455.014,2.9129.0092,1.9072.0184,3.7991.0274,5.6686.0046.9483.0091,1.8909.0136,2.8266.0089,1.8491.0177,3.6718.0264,5.4603.013,2.6937.0256,5.3098.0378,7.8232.0161,3.3376.0314,6.4935.0454,9.4074,0,.007,0,.0142.0001.0212.0564,11.6739.094,19.4562.094,19.4581.0033.0001.007.0003.0103.0004,3.8586.0479,7.7164.1611,11.5729.3067,2.0309.0556,3.9788.1246,5.647.2254.2617.02.548.0392.8225.0588,2.2717.1182,4.5413.2671,6.8108.4193,2.3681.1348,4.7145.2679,6.6782.4078,24.4694,1.9338,48.9315,5.9893,72.8813,12.1271,6.7089-35.8959,10.1854-78.5311,8.2295-128.3035-20.8409-4.043-41.9423-6.8651-63.1398-8.4427-.2734-.0201-.5469-.0396-.8203-.0593-1.8622-.1357-3.7255-.2593-5.5891-.3759-.7231-.0448-1.4463-.0886-2.1696-.1306-1.4073-.0823-2.8151-.1569-4.223-.2282-1.0446-.0524-2.0894-.1044-3.1342-.1508-1.0819-.0485-2.1641-.0906-3.2463-.1326-1.2878-.0496-2.5756-.0988-3.8636-.1392-.838-.0265-1.6762-.0469-2.5143-.0695-1.4706-.0394-2.9413-.0783-4.4122-.1058-.6635-.0125-1.327-.0186-1.9905-.0286-1.6062-.0242-3.2125-.0475-4.8187-.0574-.5552-.0034-1.1104-.0002-1.6656-.0019-1.6803-.0053-3.3607-.0095-5.0408.0007-2.2089.0142-4.4178.0389-6.6262.0804,0,0,.0072,1.4905.02,4.1456.0037.7586.0078,1.6123.0123,2.5534Z"/><path class="u" d="M309.836,454.277c95.1288,28.996,157.9599,20.0751,190.6381,1.6937,15.8222-8.9,37.5245-34.1166,54.8436-77.3873-80.6993-11.4839-166.5547,12.4953-230.5311,62.8281-5.189,4.1186-10.1671,8.4153-14.9506,12.8655Z"/></g><g id="e"><path class="r" d="M728.646,233.3535c-2.2085,2.5682-.7001,4.7817-1.2302,14.2649-.6437,11.5109-3.1644,13.5895-1.0813,16.5969,2.3533,3.3973,6.8386,1.7161,18.8418,4.8345,6.9363,1.802,12.879,3.358,12.879,3.358,3.2098.8357,6.6195.0124,8.9913-2.1785,2.3828-2.1853,3.3877-5.4111,2.6752-8.5404,0,0-.7104-3.1938-1.6968-7.5859-12.0963-7.9258-24.5636-15.3071-37.3475-22.1412-.7725.2506-1.406.6644-2.0315,1.3918Z"/><path class="r" d="M880.8426,516.2337c-.1501,4.1301,4.4488,5.47,12.1937,15.1558,4.4757,5.5973,8.3028,10.4024,8.3028,10.4024,2.07,2.5916,5.2937,3.9743,8.5052,3.6403,3.217-.323,5.9537-2.3045,7.2571-5.2373,0,0,9.9089-21.9964,12.8071-28.8768.2153-.5109.367-1.3594.1909-2.3862-.6946-4.0494-6.4305-5.0585-14.5202-8.9891-9.8552-4.7884-10.7346-7.8543-14.4028-7.0398-3.3066.7341-3.4243,3.4101-9.5283,10.687-7.4092,8.8328-10.6728,8.9878-10.8057,12.6436Z"/><path class="r" d="M838.9262,795.3444c-3.1075,2.7246-.9268,6.9895-2.6591,19.2695-1.0011,7.0964-1.8708,13.1775-1.8708,13.1775-.465,3.284.7409,6.5779,3.1874,8.6851,2.4423,2.1187,5.7615,2.75,8.7894,1.686,0,0,22.8008-7.8838,29.7946-10.4962.5194-.194,1.2407-.6657,1.8669-1.4983,2.4693-3.2837-.7322-8.1489-3.4233-16.7308-3.2785-10.455-1.6515-13.1982-4.7608-15.308-2.8028-1.9018-4.8303-.1514-14.3122.4009-11.5094.6704-13.8614-1.5975-16.6121.8142Z"/><path class="r" d="M619.9149,926.6034c-4.0945-.5614-5.8865,3.8808-16.2968,10.6207-6.0159,3.8949-11.1789,7.2235-11.1789,7.2235-2.7851,1.8011-4.4826,4.8708-4.4707,8.0996.0004,3.2332,1.699,6.1539,4.4871,7.7435,0,0,20.898,12.0542,27.4549,15.6244.4869.2652,1.316.5008,2.3552.4281,4.0985-.2871,5.6749-5.8937,10.3929-13.5508,5.7478-9.3283,8.8861-9.8974,8.4417-13.6285-.4006-3.3634-3.0514-3.7475-9.683-10.5471-8.0495-8.2535-7.8781-11.5163-11.5024-12.0133Z"/><path class="r" d="M371.4353,824.7067c-.6472-4.0818-5.4179-4.512-14.8814-12.5271-5.4688-4.6318-10.1488-8.611-10.1488-8.611-2.5298-2.145-5.9594-2.8817-9.0466-1.9362-3.0948.9358-5.3992,3.4068-6.1141,6.5355,0,0-5.4925,23.4917-7.0131,30.8011-.113.5428-.0987,1.4046.2716,2.3783,1.4606,3.8402,7.2835,3.727,15.9781,6.028,10.5923,2.8032,12.045,5.6426,15.488,4.1378,3.1036-1.3565,2.7044-4.0051,7.2946-12.3203,5.5717-10.0931,8.7446-10.873,8.1717-14.4861Z"/><path class="r" d="M342.7974,573.0036c-.4918.2559-1.1501.8123-1.6699,1.7151-2.0497,3.5607,1.7222,7.9984,5.4416,16.1873.743,1.636,1.317,3.0623,1.7935,4.3434,3.0795-10.7336,7.1102-21.1558,12.1518-31.1047-6.4917,3.2029-14.2099,7.0333-17.717,8.8589Z"/></g></g><g id="f"><path id="g" class="s" d="M512.4227,375.6755c-.7583,1.3271-.4063,3.0186.8316,3.9151,6.4476,4.6695,43.2476,25.0243,46.8186,29.9387,5.5254,7.6042,9.6528,14.4607,12.4262,20.5719,1.1587,2.5531,4.8965,2.2749,5.6296-.4313,2.4965-9.2163.1104-17.1552-1.8467-21.5559-.8-1.7988.2947-3.8574,2.2352-4.1889,4.2102-.7192,10.8669-2.4222,16.5376-6.3951,2.3963-1.6788,1.2819-5.4118-1.643-5.4863-5.1332-.1308-11.8878-1.2265-18.7349-5.0693-6.2953-3.5331-42.118-23.7635-48.2905-28.7153-1.442-1.1569-3.5714-.7717-4.4886.8335-3.1583,5.5276-6.3167,11.0552-9.475,16.5828Z"/><path id="h" class="r" d="M174.8148,380.6682c-1.7461-.969-2.23-9.0428-1.8148-11.6682l-19.2007-20.2723c-2.2474-2.4437-3.1462-5.8382-2.3607-9.0066.7773-3.1541,3.1162-5.6144,6.1848-6.5125l30.2446-8.7554c.8505-2.5101,1.728-5.0103,2.6414-7.4913l-17.299-27.8219c-1.7596-2.8116-1.9907-6.3135-.6127-9.2303,1.3617-2.9211,4.1493-4.8561,7.3481-5.1066l31.488-2.4943c1.3342-2.299,2.6878-4.5774,4.0794-6.8364l-11.7422-30.4749c-1.1922-3.0856-.7487-6.5456,1.1591-9.109,1.9106-2.5788,5.0314-3.9034,8.2439-3.5073l31.5599,3.8371c1.7628-1.9685,3.5417-3.9223,5.3619-5.8509l-5.7736-31.9894c-.5961-3.2551.4941-6.5194,2.8837-8.6482,2.3783-2.1079,5.7137-2.7819,8.8006-1.7677l30.5124,10.0602c2.0901-1.5488,4.2087-3.0838,6.3481-4.5756l.4176-32.3894c.0303-3.2741,1.7402-6.2417,4.4957-7.8299,2.7618-1.5919,6.1816-1.5809,9.0421.027l28.2308,15.877c2.3632-1.1034,4.7426-2.1609,7.1345-3.1955l6.5879-31.4442c.6682-3.1786,2.913-5.7209,5.9384-6.7276,3.0372-1.0073,6.4083-.3063,8.9313,1.8382l24.7781,21.0355c2.5879-.6121,5.1655-1.1776,7.751-1.7071l12.507-29.2366c1.2639-2.9693,3.9745-5.0065,7.1544-5.3679,3.1858-.3724,6.3947.9824,8.4697,3.5592l20.481,25.4379c2.6534-.0724,5.3066-.0945,7.9556-.1004l17.9446-25.9978c1.8252-2.6397,4.8821-4.0789,8.1031-3.7992,3.2176.2679,6.1288,2.225,7.6818,5.1558l15.3964,28.9185c2.6099.4502,5.2178.9415,7.8073,1.4689l22.7416-21.7849c2.3048-2.2066,5.6135-2.994,8.7276-2.0828,3.1282.9127,5.6202,3.3888,6.6051,6.5602l7.2505,24.3384c2.4881.9423,9.6885,7.862,9.8569,9.8546,15.1431,179.1454-42.8569,269.1454-74.8569,287.1454-43.9951,24.7473-147,31-315.1852-62.3318Z"/><path id="i" class="t" d="M416.6517,268.8313s9.1773-41.5786,49.7558-28.6784c0,0,40.4838,25.0557,31.4023,54.4816,0,0-17.3313,43.8615-49.7558,28.6784,0,0-32.8394-7.6867-31.4023-54.4816Z"/><path id="j" class="p" d="M451.2784,262.3353c6.1138,10.6072,4.8179,22.8102-2.8933,27.2548-7.7096,4.4437-18.9185-.5518-25.0323-11.159s-4.8182-22.8108,2.8914-27.2545,18.9206.5519,25.0342,11.1586Z"/><path id="k" class="t" d="M301.3287,325.3925s31.7841-43.492,67.7395-8.0315c0,0,40.5337,42.1237-5.1123,72.1296,0,0-66.9345,23.1212-62.6273-64.0981Z"/><path id="l" class="p" d="M333.2752,331.278c6.3044,10.9379,4.9707,23.5254-2.9834,28.1099s-19.5129-.5718-25.8173-11.5097c-6.3059-10.9405-4.9691-23.5262,2.9818-28.109s19.513.5683,25.8189,11.5088Z"/><g id="m"><path id="n" class="t" d="M457.6063,435.6128s-1.3552,8.2645-9.4633,6.1675c0,0-8.2203-4.4854-6.7533-10.3622,0,0,2.932-8.8006,9.4633-6.1675,0,0,6.5322,1.1564,6.7533,10.3622Z"/><path id="o" class="t" d="M498.6468,412.2641s-5.7744,8.8835-13.2173,2.3059c0,0-8.4137-7.8369.2282-14.2209,0,0,12.8969-5.2608,12.9891,11.9149Z"/></g></g></svg>